<svg width="37" height="12" viewBox="0 0 37 12" fill="none" xmlns="http://www.w3.org/2000/svg">
<path d="M3.756 9.144C3.084 9.144 2.44 9.056 1.824 8.88C1.208 8.696 0.712 8.46 0.336 8.172L0.996 6.708C1.356 6.964 1.78 7.176 2.268 7.344C2.764 7.504 3.264 7.584 3.768 7.584C4.152 7.584 4.46 7.548 4.692 7.476C4.932 7.396 5.108 7.288 5.22 7.152C5.332 7.016 5.388 6.86 5.388 6.684C5.388 6.46 5.3 6.284 5.124 6.156C4.948 6.02 4.716 5.912 4.428 5.832C4.14 5.744 3.82 5.664 3.468 5.592C3.124 5.512 2.776 5.416 2.424 5.304C2.08 5.192 1.764 5.048 1.476 4.872C1.188 4.696 0.952 4.464 0.768 4.176C0.592 3.888 0.504 3.52 0.504 3.072C0.504 2.592 0.632 2.156 0.888 1.764C1.152 1.364 1.544 1.048 2.064 0.816C2.592 0.576 3.252 0.456 4.044 0.456C4.572 0.456 5.092 0.52 5.604 0.648C6.116 0.767999 6.568 0.951999 6.96 1.2L6.36 2.676C5.968 2.452 5.576 2.288 5.184 2.184C4.792 2.072 4.408 2.016 4.032 2.016C3.656 2.016 3.348 2.06 3.108 2.148C2.868 2.236 2.696 2.352 2.592 2.496C2.488 2.632 2.436 2.792 2.436 2.976C2.436 3.192 2.524 3.368 2.7 3.504C2.876 3.632 3.108 3.736 3.396 3.816C3.684 3.896 4 3.976 4.344 4.056C4.696 4.136 5.044 4.228 5.388 4.332C5.74 4.436 6.06 4.576 6.348 4.752C6.636 4.928 6.868 5.16 7.044 5.448C7.228 5.736 7.32 6.1 7.32 6.54C7.32 7.012 7.188 7.444 6.924 7.836C6.66 8.228 6.264 8.544 5.736 8.784C5.216 9.024 4.556 9.144 3.756 9.144ZM11.7203 9.096C10.9843 9.096 10.3363 8.952 9.77634 8.664C9.22434 8.376 8.79634 7.984 8.49234 7.488C8.18834 6.984 8.03634 6.412 8.03634 5.772C8.03634 5.124 8.18434 4.552 8.48034 4.056C8.78434 3.552 9.19634 3.16 9.71634 2.88C10.2363 2.592 10.8243 2.448 11.4803 2.448C12.1123 2.448 12.6803 2.584 13.1843 2.856C13.6963 3.12 14.1003 3.504 14.3963 4.008C14.6923 4.504 14.8403 5.1 14.8403 5.796C14.8403 5.868 14.8363 5.952 14.8283 6.048C14.8203 6.136 14.8123 6.22 14.8043 6.3H9.56034V5.208H13.8203L13.1003 5.532C13.1003 5.196 13.0323 4.904 12.8963 4.656C12.7603 4.408 12.5723 4.216 12.3323 4.08C12.0923 3.936 11.8123 3.864 11.4923 3.864C11.1723 3.864 10.8883 3.936 10.6403 4.08C10.4003 4.216 10.2123 4.412 10.0763 4.668C9.94034 4.916 9.87234 5.212 9.87234 5.556V5.844C9.87234 6.196 9.94834 6.508 10.1003 6.78C10.2603 7.044 10.4803 7.248 10.7603 7.392C11.0483 7.528 11.3843 7.596 11.7683 7.596C12.1123 7.596 12.4123 7.544 12.6683 7.44C12.9323 7.336 13.1723 7.18 13.3883 6.972L14.3843 8.052C14.0883 8.388 13.7163 8.648 13.2683 8.832C12.8203 9.008 12.3043 9.096 11.7203 9.096ZM20.0107 2.448C20.5227 2.448 20.9787 2.552 21.3787 2.76C21.7867 2.96 22.1067 3.272 22.3387 3.696C22.5707 4.112 22.6867 4.648 22.6867 5.304V9H20.8147V5.592C20.8147 5.072 20.6987 4.688 20.4667 4.44C20.2427 4.192 19.9227 4.068 19.5067 4.068C19.2107 4.068 18.9427 4.132 18.7027 4.26C18.4707 4.38 18.2867 4.568 18.1507 4.824C18.0227 5.08 17.9587 5.408 17.9587 5.808V9H16.0867V2.544H17.8747V4.332L17.5387 3.792C17.7707 3.36 18.1027 3.028 18.5347 2.796C18.9667 2.564 19.4587 2.448 20.0107 2.448ZM25.0823 11.424C24.7463 11.424 24.4143 11.372 24.0863 11.268C23.7583 11.164 23.4903 11.02 23.2823 10.836L23.9663 9.504C24.1103 9.632 24.2743 9.732 24.4583 9.804C24.6503 9.876 24.8383 9.912 25.0223 9.912C25.2863 9.912 25.4943 9.848 25.6463 9.72C25.8063 9.6 25.9503 9.396 26.0783 9.108L26.4143 8.316L26.5583 8.112L28.8743 2.544H30.6743L27.7583 9.396C27.5503 9.916 27.3103 10.324 27.0383 10.62C26.7743 10.916 26.4783 11.124 26.1503 11.244C25.8303 11.364 25.4743 11.424 25.0823 11.424ZM26.1863 9.252L23.3063 2.544H25.2383L27.4703 7.944L26.1863 9.252ZM35.1873 9V7.74L35.0673 7.464V5.208C35.0673 4.808 34.9433 4.496 34.6953 4.272C34.4553 4.048 34.0833 3.936 33.5793 3.936C33.2353 3.936 32.8953 3.992 32.5593 4.104C32.2313 4.208 31.9513 4.352 31.7193 4.536L31.0473 3.228C31.3993 2.98 31.8233 2.788 32.3193 2.652C32.8153 2.516 33.3193 2.448 33.8313 2.448C34.8153 2.448 35.5793 2.68 36.1233 3.144C36.6673 3.608 36.9393 4.332 36.9393 5.316V9H35.1873ZM33.2193 9.096C32.7153 9.096 32.2833 9.012 31.9233 8.844C31.5633 8.668 31.2873 8.432 31.0953 8.136C30.9033 7.84 30.8073 7.508 30.8073 7.14C30.8073 6.756 30.8993 6.42 31.0833 6.132C31.2753 5.844 31.5753 5.62 31.9833 5.46C32.3913 5.292 32.9233 5.208 33.5793 5.208H35.2953V6.3H33.7833C33.3433 6.3 33.0393 6.372 32.8713 6.516C32.7113 6.66 32.6313 6.84 32.6313 7.056C32.6313 7.296 32.7233 7.488 32.9073 7.632C33.0993 7.768 33.3593 7.836 33.6873 7.836C33.9993 7.836 34.2793 7.764 34.5273 7.62C34.7753 7.468 34.9553 7.248 35.0673 6.96L35.3553 7.824C35.2193 8.24 34.9713 8.556 34.6113 8.772C34.2513 8.988 33.7873 9.096 33.2193 9.096Z" fill="black"/>
</svg>
