<svg width="39" height="13" viewBox="0 0 39 13" fill="none" xmlns="http://www.w3.org/2000/svg">
<path d="M3.756 10.144C3.084 10.144 2.44 10.056 1.824 9.88C1.208 9.696 0.712 9.46 0.336 9.172L0.996 7.708C1.356 7.964 1.78 8.176 2.268 8.344C2.764 8.504 3.264 8.584 3.768 8.584C4.152 8.584 4.46 8.548 4.692 8.476C4.932 8.396 5.108 8.288 5.22 8.152C5.332 8.016 5.388 7.86 5.388 7.684C5.388 7.46 5.3 7.284 5.124 7.156C4.948 7.02 4.716 6.912 4.428 6.832C4.14 6.744 3.82 6.664 3.468 6.592C3.124 6.512 2.776 6.416 2.424 6.304C2.08 6.192 1.764 6.048 1.476 5.872C1.188 5.696 0.952 5.464 0.768 5.176C0.592 4.888 0.504 4.52 0.504 4.072C0.504 3.592 0.632 3.156 0.888 2.764C1.152 2.364 1.544 2.048 2.064 1.816C2.592 1.576 3.252 1.456 4.044 1.456C4.572 1.456 5.092 1.52 5.604 1.648C6.116 1.768 6.568 1.952 6.96 2.2L6.36 3.676C5.968 3.452 5.576 3.288 5.184 3.184C4.792 3.072 4.408 3.016 4.032 3.016C3.656 3.016 3.348 3.06 3.108 3.148C2.868 3.236 2.696 3.352 2.592 3.496C2.488 3.632 2.436 3.792 2.436 3.976C2.436 4.192 2.524 4.368 2.7 4.504C2.876 4.632 3.108 4.736 3.396 4.816C3.684 4.896 4 4.976 4.344 5.056C4.696 5.136 5.044 5.228 5.388 5.332C5.74 5.436 6.06 5.576 6.348 5.752C6.636 5.928 6.868 6.16 7.044 6.448C7.228 6.736 7.32 7.1 7.32 7.54C7.32 8.012 7.188 8.444 6.924 8.836C6.66 9.228 6.264 9.544 5.736 9.784C5.216 10.024 4.556 10.144 3.756 10.144ZM8.51634 10V3.544H10.3883V10H8.51634ZM9.45234 2.644C9.10834 2.644 8.82834 2.544 8.61234 2.344C8.39634 2.144 8.28834 1.896 8.28834 1.6C8.28834 1.304 8.39634 1.056 8.61234 0.856C8.82834 0.655999 9.10834 0.555999 9.45234 0.555999C9.79634 0.555999 10.0763 0.651999 10.2923 0.844C10.5083 1.028 10.6163 1.268 10.6163 1.564C10.6163 1.876 10.5083 2.136 10.2923 2.344C10.0843 2.544 9.80434 2.644 9.45234 2.644ZM15.1617 12.424C14.5537 12.424 13.9657 12.348 13.3977 12.196C12.8377 12.052 12.3697 11.832 11.9937 11.536L12.7377 10.192C13.0097 10.416 13.3537 10.592 13.7697 10.72C14.1937 10.856 14.6097 10.924 15.0177 10.924C15.6817 10.924 16.1617 10.776 16.4577 10.48C16.7617 10.184 16.9137 9.744 16.9137 9.16V8.188L17.0337 6.568L17.0097 4.936V3.544H18.7857V8.92C18.7857 10.12 18.4737 11.004 17.8497 11.572C17.2257 12.14 16.3297 12.424 15.1617 12.424ZM14.8737 9.688C14.2737 9.688 13.7297 9.56 13.2417 9.304C12.7617 9.04 12.3737 8.676 12.0777 8.212C11.7897 7.74 11.6457 7.192 11.6457 6.568C11.6457 5.936 11.7897 5.388 12.0777 4.924C12.3737 4.452 12.7617 4.088 13.2417 3.832C13.7297 3.576 14.2737 3.448 14.8737 3.448C15.4177 3.448 15.8977 3.56 16.3137 3.784C16.7297 4 17.0537 4.34 17.2857 4.804C17.5177 5.26 17.6337 5.848 17.6337 6.568C17.6337 7.28 17.5177 7.868 17.2857 8.332C17.0537 8.788 16.7297 9.128 16.3137 9.352C15.8977 9.576 15.4177 9.688 14.8737 9.688ZM15.2457 8.152C15.5737 8.152 15.8657 8.088 16.1217 7.96C16.3777 7.824 16.5777 7.636 16.7217 7.396C16.8657 7.156 16.9377 6.88 16.9377 6.568C16.9377 6.248 16.8657 5.972 16.7217 5.74C16.5777 5.5 16.3777 5.316 16.1217 5.188C15.8657 5.052 15.5737 4.984 15.2457 4.984C14.9177 4.984 14.6257 5.052 14.3697 5.188C14.1137 5.316 13.9097 5.5 13.7577 5.74C13.6137 5.972 13.5417 6.248 13.5417 6.568C13.5417 6.88 13.6137 7.156 13.7577 7.396C13.9097 7.636 14.1137 7.824 14.3697 7.96C14.6257 8.088 14.9177 8.152 15.2457 8.152ZM28.7961 3.448C29.3081 3.448 29.7601 3.552 30.1521 3.76C30.5521 3.96 30.8641 4.272 31.0881 4.696C31.3201 5.112 31.4361 5.648 31.4361 6.304V10H29.5641V6.592C29.5641 6.072 29.4561 5.688 29.2401 5.44C29.0241 5.192 28.7201 5.068 28.3281 5.068C28.0561 5.068 27.8121 5.132 27.5961 5.26C27.3801 5.38 27.2121 5.564 27.0921 5.812C26.9721 6.06 26.9121 6.376 26.9121 6.76V10H25.0401V6.592C25.0401 6.072 24.9321 5.688 24.7161 5.44C24.5081 5.192 24.2081 5.068 23.8161 5.068C23.5441 5.068 23.3001 5.132 23.0841 5.26C22.8681 5.38 22.7001 5.564 22.5801 5.812C22.4601 6.06 22.4001 6.376 22.4001 6.76V10H20.5281V3.544H22.3161V5.308L21.9801 4.792C22.2041 4.352 22.5201 4.02 22.9281 3.796C23.3441 3.564 23.8161 3.448 24.3441 3.448C24.9361 3.448 25.4521 3.6 25.8921 3.904C26.3401 4.2 26.6361 4.656 26.7801 5.272L26.1201 5.092C26.3361 4.588 26.6801 4.188 27.1521 3.892C27.6321 3.596 28.1801 3.448 28.7961 3.448ZM37.074 10V8.74L36.954 8.464V6.208C36.954 5.808 36.83 5.496 36.582 5.272C36.342 5.048 35.97 4.936 35.466 4.936C35.122 4.936 34.782 4.992 34.446 5.104C34.118 5.208 33.838 5.352 33.606 5.536L32.934 4.228C33.286 3.98 33.71 3.788 34.206 3.652C34.702 3.516 35.206 3.448 35.718 3.448C36.702 3.448 37.466 3.68 38.01 4.144C38.554 4.608 38.826 5.332 38.826 6.316V10H37.074ZM35.106 10.096C34.602 10.096 34.17 10.012 33.81 9.844C33.45 9.668 33.174 9.432 32.982 9.136C32.79 8.84 32.694 8.508 32.694 8.14C32.694 7.756 32.786 7.42 32.97 7.132C33.162 6.844 33.462 6.62 33.87 6.46C34.278 6.292 34.81 6.208 35.466 6.208H37.182V7.3H35.67C35.23 7.3 34.926 7.372 34.758 7.516C34.598 7.66 34.518 7.84 34.518 8.056C34.518 8.296 34.61 8.488 34.794 8.632C34.986 8.768 35.246 8.836 35.574 8.836C35.886 8.836 36.166 8.764 36.414 8.62C36.662 8.468 36.842 8.248 36.954 7.96L37.242 8.824C37.106 9.24 36.858 9.556 36.498 9.772C36.138 9.988 35.674 10.096 35.106 10.096Z" fill="white"/>
</svg>
